<svg xmlns="http://www.w3.org/2000/svg" xmlns:xlink="http://www.w3.org/1999/xlink" width="2138.155" height="95.943" viewBox="0 0 2138.155 95.943">
  <defs>
    <clipPath id="clip-path">
      <rect width="2138.155" height="95.943" fill="none"/>
    </clipPath>
  </defs>
  <g id="Grille_de_répétition_1" data-name="Grille de répétition 1" clip-path="url(#clip-path)">
    <g transform="translate(-482.712 -952.686)">
      <path id="iconmonstr-arrow-20" d="M41.673,1l-9.109,9.048,19.76,19.76H0V42.58H52.324L32.564,62.34l9.109,9.048L76.787,36.194Z" transform="matrix(0.574, 0.819, -0.819, 0.574, 528.732, 935.67)" fill="#fff"/>
      <path id="iconmonstr-arrow-20-2" data-name="iconmonstr-arrow-20" d="M41.673,1l-9.109,9.048,19.76,19.76H0V42.58H52.324L32.564,62.34l9.109,9.048L76.787,36.194Z" transform="matrix(0.574, 0.819, -0.819, 0.574, 986.73, 935.67)" fill="#fff"/>
      <path id="iconmonstr-arrow-20-3" data-name="iconmonstr-arrow-20" d="M41.673,1l-9.109,9.048,19.76,19.76H0V42.58H52.324L32.564,62.34l9.109,9.048L76.787,36.194Z" transform="matrix(0.574, 0.819, -0.819, 0.574, 757.731, 935.67)" fill="#fff"/>
      <path id="iconmonstr-arrow-20-4" data-name="iconmonstr-arrow-20" d="M41.673,1l-9.109,9.048,19.76,19.76H0V42.58H52.324L32.564,62.34l9.109,9.048L76.787,36.194Z" transform="matrix(0.574, 0.819, -0.819, 0.574, 643.232, 935.67)" fill="#fff"/>
      <path id="iconmonstr-arrow-20-5" data-name="iconmonstr-arrow-20" d="M41.673,1l-9.109,9.048,19.76,19.76H0V42.58H52.324L32.564,62.34l9.109,9.048L76.787,36.194Z" transform="matrix(0.574, 0.819, -0.819, 0.574, 872.23, 935.67)" fill="#fff"/>
    </g>
    <g transform="translate(88.288 -952.686)">
      <path id="iconmonstr-arrow-20-6" data-name="iconmonstr-arrow-20" d="M41.673,1l-9.109,9.048,19.76,19.76H0V42.58H52.324L32.564,62.34l9.109,9.048L76.787,36.194Z" transform="matrix(0.574, 0.819, -0.819, 0.574, 528.732, 935.67)" fill="#fff"/>
      <path id="iconmonstr-arrow-20-7" data-name="iconmonstr-arrow-20" d="M41.673,1l-9.109,9.048,19.76,19.76H0V42.58H52.324L32.564,62.34l9.109,9.048L76.787,36.194Z" transform="matrix(0.574, 0.819, -0.819, 0.574, 986.73, 935.67)" fill="#fff"/>
      <path id="iconmonstr-arrow-20-8" data-name="iconmonstr-arrow-20" d="M41.673,1l-9.109,9.048,19.76,19.76H0V42.58H52.324L32.564,62.34l9.109,9.048L76.787,36.194Z" transform="matrix(0.574, 0.819, -0.819, 0.574, 757.731, 935.67)" fill="#fff"/>
      <path id="iconmonstr-arrow-20-9" data-name="iconmonstr-arrow-20" d="M41.673,1l-9.109,9.048,19.76,19.76H0V42.58H52.324L32.564,62.34l9.109,9.048L76.787,36.194Z" transform="matrix(0.574, 0.819, -0.819, 0.574, 643.232, 935.67)" fill="#fff"/>
      <path id="iconmonstr-arrow-20-10" data-name="iconmonstr-arrow-20" d="M41.673,1l-9.109,9.048,19.76,19.76H0V42.58H52.324L32.564,62.34l9.109,9.048L76.787,36.194Z" transform="matrix(0.574, 0.819, -0.819, 0.574, 872.23, 935.67)" fill="#fff"/>
    </g>
    <g transform="translate(659.288 -952.686)">
      <path id="iconmonstr-arrow-20-11" data-name="iconmonstr-arrow-20" d="M41.673,1l-9.109,9.048,19.76,19.76H0V42.58H52.324L32.564,62.34l9.109,9.048L76.787,36.194Z" transform="matrix(0.574, 0.819, -0.819, 0.574, 528.732, 935.67)" fill="#fff"/>
      <path id="iconmonstr-arrow-20-12" data-name="iconmonstr-arrow-20" d="M41.673,1l-9.109,9.048,19.76,19.76H0V42.58H52.324L32.564,62.34l9.109,9.048L76.787,36.194Z" transform="matrix(0.574, 0.819, -0.819, 0.574, 986.73, 935.67)" fill="#fff"/>
      <path id="iconmonstr-arrow-20-13" data-name="iconmonstr-arrow-20" d="M41.673,1l-9.109,9.048,19.76,19.76H0V42.58H52.324L32.564,62.34l9.109,9.048L76.787,36.194Z" transform="matrix(0.574, 0.819, -0.819, 0.574, 757.731, 935.67)" fill="#fff"/>
      <path id="iconmonstr-arrow-20-14" data-name="iconmonstr-arrow-20" d="M41.673,1l-9.109,9.048,19.76,19.76H0V42.58H52.324L32.564,62.34l9.109,9.048L76.787,36.194Z" transform="matrix(0.574, 0.819, -0.819, 0.574, 643.232, 935.67)" fill="#fff"/>
      <path id="iconmonstr-arrow-20-15" data-name="iconmonstr-arrow-20" d="M41.673,1l-9.109,9.048,19.76,19.76H0V42.58H52.324L32.564,62.34l9.109,9.048L76.787,36.194Z" transform="matrix(0.574, 0.819, -0.819, 0.574, 872.23, 935.67)" fill="#fff"/>
    </g>
    <g transform="translate(1230.288 -952.686)">
      <path id="iconmonstr-arrow-20-16" data-name="iconmonstr-arrow-20" d="M41.673,1l-9.109,9.048,19.76,19.76H0V42.58H52.324L32.564,62.34l9.109,9.048L76.787,36.194Z" transform="matrix(0.574, 0.819, -0.819, 0.574, 528.732, 935.67)" fill="#fff"/>
      <path id="iconmonstr-arrow-20-17" data-name="iconmonstr-arrow-20" d="M41.673,1l-9.109,9.048,19.76,19.76H0V42.58H52.324L32.564,62.34l9.109,9.048L76.787,36.194Z" transform="matrix(0.574, 0.819, -0.819, 0.574, 986.73, 935.67)" fill="#fff"/>
      <path id="iconmonstr-arrow-20-18" data-name="iconmonstr-arrow-20" d="M41.673,1l-9.109,9.048,19.76,19.76H0V42.58H52.324L32.564,62.34l9.109,9.048L76.787,36.194Z" transform="matrix(0.574, 0.819, -0.819, 0.574, 757.731, 935.67)" fill="#fff"/>
      <path id="iconmonstr-arrow-20-19" data-name="iconmonstr-arrow-20" d="M41.673,1l-9.109,9.048,19.76,19.76H0V42.58H52.324L32.564,62.34l9.109,9.048L76.787,36.194Z" transform="matrix(0.574, 0.819, -0.819, 0.574, 643.232, 935.67)" fill="#fff"/>
      <path id="iconmonstr-arrow-20-20" data-name="iconmonstr-arrow-20" d="M41.673,1l-9.109,9.048,19.76,19.76H0V42.58H52.324L32.564,62.34l9.109,9.048L76.787,36.194Z" transform="matrix(0.574, 0.819, -0.819, 0.574, 872.23, 935.67)" fill="#fff"/>
    </g>
  </g>
</svg>
